# xmcd
#
# Track frame offsets: 
#        150
#        18372
#        32922
#        43965
#        56116
#        72315
#        86403
#        99681
#        116650
#        132810
#        147914
#        166373
#        182271
#        202056
#
# Disc length: 2887 seconds
#
# Revision: 0
# Processed by: cddbd v1.5.2PL0 Copyright (c) Steve Scherf et al.
# Submitted via: ExactAudioCopy v1.3
#
DISCID=c90b450e
DTITLE=William Clark Green - Hebert Island
DYEAR=2018
DGENRE=Country
TTITLE0=Hebert Island
TTITLE1=Hit You Where It Hurts
TTITLE2=What About Now
TTITLE3=Goner
TTITLE4=Stay
TTITLE5=Wings
TTITLE6=Poor
TTITLE7=She Loves Horses
TTITLE8=This Is Us
TTITLE9=Farewell
TTITLE10=Drunk Again
TTITLE11=If You Asked Me To
TTITLE12=I Miss You
TTITLE13=My Mother
EXTD=
EXTT0=
EXTT1=
EXTT2=
EXTT3=
EXTT4=
EXTT5=
EXTT6=
EXTT7=
EXTT8=
EXTT9=
EXTT10=
EXTT11=
EXTT12=
EXTT13=
PLAYORDER=
